<?xml version="1.0" encoding="UTF-8" standalone="no"?>
<!-- Created with Inkscape (http://www.inkscape.org/) -->

<svg
   xmlns:osb="http://www.openswatchbook.org/uri/2009/osb"
   xmlns:dc="http://purl.org/dc/elements/1.1/"
   xmlns:cc="http://creativecommons.org/ns#"
   xmlns:rdf="http://www.w3.org/1999/02/22-rdf-syntax-ns#"
   xmlns:svg="http://www.w3.org/2000/svg"
   xmlns="http://www.w3.org/2000/svg"
   xmlns:sodipodi="http://sodipodi.sourceforge.net/DTD/sodipodi-0.dtd"
   xmlns:inkscape="http://www.inkscape.org/namespaces/inkscape"
   width="120"
   height="40"
   viewBox="0 0 31.750001 10.583334"
   version="1.1"
   id="svg8"
   sodipodi:docname="icon3.svg"
   inkscape:version="0.92.1 r15371">
  <defs
     id="defs2">
    <linearGradient
       id="linearGradient5953"
       osb:paint="solid">
      <stop
         style="stop-color:#000000;stop-opacity:1;"
         offset="0"
         id="stop5951" />
    </linearGradient>
  </defs>
  <sodipodi:namedview
     id="base"
     pagecolor="#ffffff"
     bordercolor="#666666"
     borderopacity="1.0"
     inkscape:pageopacity="0.0"
     inkscape:pageshadow="2"
     inkscape:zoom="7.6823922"
     inkscape:cx="52.89602"
     inkscape:cy="15.025941"
     inkscape:document-units="mm"
     inkscape:current-layer="g6080"
     showgrid="false"
     inkscape:window-width="1366"
     inkscape:window-height="706"
     inkscape:window-x="-8"
     inkscape:window-y="-8"
     inkscape:window-maximized="1"
     inkscape:snap-page="true"
     inkscape:snap-to-guides="true"
     units="px">
    <inkscape:grid
       type="xygrid"
       id="grid6042" />
  </sodipodi:namedview>
  <metadata
     id="metadata5">
    <rdf:RDF>
      <cc:Work
         rdf:about="">
        <dc:format>image/svg+xml</dc:format>
        <dc:type
           rdf:resource="http://purl.org/dc/dcmitype/StillImage" />
        <dc:title></dc:title>
      </cc:Work>
    </rdf:RDF>
  </metadata>
  <g
     inkscape:label="Layer 1"
     inkscape:groupmode="layer"
     id="layer1"
     transform="translate(0,-286.41664)">
    <g
       id="g6080"
       transform="matrix(0.57951374,0,0,0.58371322,-19.616198,207.79783)">
      <g
         id="g6002">
        <text
           xml:space="preserve"
           style="font-style:normal;font-weight:normal;font-size:10.58333302px;line-height:1.25;font-family:sans-serif;letter-spacing:0px;word-spacing:0px;fill:#000000;fill-opacity:1;stroke:none;stroke-width:0.26458332"
           x="33.501358"
           y="152.30264"
           id="text3682"><tspan
             sodipodi:role="line"
             id="tspan3680"
             x="33.501358"
             y="152.30264"
             style="font-style:normal;font-variant:normal;font-weight:bold;font-stretch:normal;font-size:16.93333244px;line-height:9;font-family:'Bauhaus 93';-inkscape-font-specification:'Bauhaus 93 Bold';fill:#afe9dd;stroke-width:0.26458332">MEIZU</tspan></text>
        <path
           style="fill:#afe9dd;stroke-width:0.26458332"
           id="path5989"
           d="m 58.712954,136.8218 c -0.226576,0.16072 -0.392732,0.37571 -0.504852,0.62737 -0.08948,0.23851 -0.09948,0.4938 -0.10642,0.74547 -0.0217,0.25607 0.0095,0.49248 0.129743,0.72038 0.08449,0.17167 0.232114,0.30267 0.405273,0.38121 0.198874,0.0707 0.392253,0.0648 0.592971,0.0168 0.521695,-0.28745 1.248421,-0.66511 -1.195649,0.68245 -0.03251,0.0179 0.05889,-0.0457 0.08456,-0.0725 0.06558,-0.0685 0.07414,-0.0998 0.117089,-0.18298 0.08657,-0.22627 0.08826,-0.47122 0.09295,-0.71017 -0.01397,-0.29314 -0.129886,-0.5628 -0.278082,-0.81125 -0.20447,-0.28126 -0.421839,-0.55646 -0.665832,-0.80476 -0.152067,-0.17174 -0.288888,-0.35493 -0.370306,-0.57043 -0.09284,-0.26782 -0.04487,-0.52343 0.06799,-0.77472 0.451998,-0.69134 1.364874,-1.00087 2.020133,-1.38128 0,0 -1.344517,1.08483 -1.344517,1.08483 v 0 c 2.585132,-1.51356 1.325409,-0.90778 0.903062,-0.40823 -0.137578,0.19147 -0.196693,0.40591 -0.126113,0.6369 0.06677,0.19496 0.196331,0.35738 0.326342,0.51494 0.239483,0.26858 0.458822,0.55513 0.679199,0.8393 0.164859,0.27398 0.293134,0.57038 0.332285,0.89053 -0.0019,0.25662 -0.0021,0.51627 -0.06294,0.76719 -0.252915,0.79798 -1.193913,1.13732 -1.969108,1.34494 -0.225658,0.0229 -0.454874,-0.0105 -0.660159,-0.11014 -0.189939,-0.11677 -0.358191,-0.26758 -0.454142,-0.47285 -0.128399,-0.25166 -0.193333,-0.51291 -0.169315,-0.79727 0.004,-0.26868 0.0097,-0.54027 0.08261,-0.80095 0.09314,-0.27626 0.238633,-0.50893 0.451832,-0.70997 0,0 1.621406,-0.6448 1.621406,-0.6448 z"
           inkscape:connector-curvature="0" />
      </g>
      <g
         id="g6070"
         style="fill:#afe9dd">
        <text
           id="text6066"
           y="152.30264"
           x="33.501358"
           style="font-style:normal;font-weight:normal;font-size:10.58333302px;line-height:1.25;font-family:sans-serif;letter-spacing:0px;word-spacing:0px;fill:#afe9dd;fill-opacity:1;stroke:none;stroke-width:0.26458332"
           xml:space="preserve"><tspan
             style="font-style:normal;font-variant:normal;font-weight:bold;font-stretch:normal;font-size:16.93333244px;line-height:9;font-family:'Bauhaus 93';-inkscape-font-specification:'Bauhaus 93 Bold';fill:#afe9dd;stroke-width:0.26458332"
             y="152.30264"
             x="33.501358"
             id="tspan6064"
             sodipodi:role="line">MEIZU</tspan></text>
        <path
           inkscape:connector-curvature="0"
           d="m 58.712954,136.8218 c -0.226576,0.16072 -0.392732,0.37571 -0.504852,0.62737 -0.08948,0.23851 -0.09948,0.4938 -0.10642,0.74547 -0.0217,0.25607 0.0095,0.49248 0.129743,0.72038 0.08449,0.17167 0.232114,0.30267 0.405273,0.38121 0.198874,0.0707 0.392253,0.0648 0.592971,0.0168 0.521695,-0.28745 1.248421,-0.66511 -1.195649,0.68245 -0.03251,0.0179 0.05889,-0.0457 0.08456,-0.0725 0.06558,-0.0685 0.07414,-0.0998 0.117089,-0.18298 0.08657,-0.22627 0.08826,-0.47122 0.09295,-0.71017 -0.01397,-0.29314 -0.129886,-0.5628 -0.278082,-0.81125 -0.20447,-0.28126 -0.421839,-0.55646 -0.665832,-0.80476 -0.152067,-0.17174 -0.288888,-0.35493 -0.370306,-0.57043 -0.09284,-0.26782 -0.04487,-0.52343 0.06799,-0.77472 0.451998,-0.69134 1.364874,-1.00087 2.020133,-1.38128 0,0 -1.344517,1.08483 -1.344517,1.08483 v 0 c 2.585132,-1.51356 1.325409,-0.90778 0.903062,-0.40823 -0.137578,0.19147 -0.196693,0.40591 -0.126113,0.6369 0.06677,0.19496 0.196331,0.35738 0.326342,0.51494 0.239483,0.26858 0.458822,0.55513 0.679199,0.8393 0.164859,0.27398 0.293134,0.57038 0.332285,0.89053 -0.0019,0.25662 -0.0021,0.51627 -0.06294,0.76719 -0.252915,0.79798 -1.193913,1.13732 -1.969108,1.34494 -0.225658,0.0229 -0.454874,-0.0105 -0.660159,-0.11014 -0.189939,-0.11677 -0.358191,-0.26758 -0.454142,-0.47285 -0.128399,-0.25166 -0.193333,-0.51291 -0.169315,-0.79727 0.004,-0.26868 0.0097,-0.54027 0.08261,-0.80095 0.09314,-0.27626 0.238633,-0.50893 0.451832,-0.70997 0,0 1.621406,-0.6448 1.621406,-0.6448 z"
           id="path6068"
           style="fill:#afe9dd;stroke-width:0.26458332" />
      </g>
    </g>
  </g>
</svg>
